<?xml version="1.0" encoding="UTF-8"?>
<svg xmlns="http://www.w3.org/2000/svg" version="1.1" width="100" height="100" viewBox="0 0 100 100"><rect x="0" y="0" width="100" height="100" fill="#ffffff"/><g transform="scale(3.448)"><g transform="translate(0,0)"><path fill-rule="evenodd" d="M10 0L10 1L8 1L8 3L9 3L9 4L8 4L8 8L6 8L6 9L7 9L7 10L5 10L5 9L4 9L4 8L3 8L3 9L2 9L2 8L0 8L0 10L3 10L3 11L1 11L1 13L0 13L0 14L1 14L1 15L2 15L2 17L3 17L3 18L2 18L2 19L3 19L3 20L4 20L4 19L5 19L5 20L6 20L6 21L7 21L7 20L9 20L9 21L8 21L8 23L9 23L9 25L8 25L8 26L10 26L10 28L11 28L11 29L12 29L12 28L13 28L13 29L15 29L15 28L17 28L17 29L18 29L18 28L19 28L19 29L21 29L21 27L22 27L22 26L23 26L23 25L24 25L24 27L23 27L23 28L24 28L24 29L26 29L26 27L27 27L27 29L28 29L28 27L29 27L29 26L28 26L28 25L29 25L29 23L28 23L28 22L25 22L25 21L27 21L27 20L28 20L28 21L29 21L29 17L28 17L28 18L27 18L27 17L26 17L26 16L25 16L25 18L24 18L24 14L21 14L21 13L23 13L23 12L25 12L25 15L26 15L26 12L27 12L27 16L29 16L29 14L28 14L28 12L29 12L29 11L28 11L28 10L29 10L29 9L28 9L28 8L26 8L26 9L27 9L27 10L25 10L25 11L24 11L24 10L23 10L23 9L25 9L25 8L22 8L22 9L20 9L20 10L18 10L18 9L19 9L19 8L18 8L18 7L19 7L19 6L20 6L20 7L21 7L21 6L20 6L20 5L19 5L19 4L21 4L21 2L20 2L20 3L19 3L19 4L17 4L17 3L18 3L18 2L19 2L19 1L20 1L20 0L18 0L18 1L17 1L17 0L14 0L14 1L15 1L15 3L16 3L16 4L15 4L15 5L14 5L14 4L13 4L13 3L12 3L12 7L11 7L11 4L10 4L10 3L9 3L9 2L11 2L11 0ZM16 4L16 6L15 6L15 7L16 7L16 8L14 8L14 6L13 6L13 7L12 7L12 8L14 8L14 9L16 9L16 8L17 8L17 9L18 9L18 8L17 8L17 7L18 7L18 5L17 5L17 4ZM9 5L9 8L8 8L8 10L7 10L7 11L5 11L5 10L4 10L4 11L3 11L3 12L2 12L2 13L1 13L1 14L2 14L2 15L4 15L4 16L3 16L3 17L6 17L6 18L5 18L5 19L6 19L6 20L7 20L7 19L9 19L9 20L11 20L11 21L12 21L12 22L10 22L10 23L11 23L11 25L12 25L12 24L13 24L13 27L17 27L17 26L18 26L18 27L21 27L21 26L22 26L22 25L20 25L20 19L21 19L21 20L23 20L23 19L24 19L24 20L25 20L25 19L24 19L24 18L23 18L23 19L22 19L22 18L21 18L21 16L22 16L22 17L23 17L23 15L21 15L21 14L19 14L19 15L18 15L18 17L17 17L17 15L16 15L16 14L17 14L17 13L20 13L20 12L21 12L21 11L20 11L20 12L19 12L19 11L18 11L18 10L17 10L17 11L16 11L16 10L15 10L15 11L16 11L16 12L17 12L17 13L16 13L16 14L15 14L15 13L14 13L14 12L12 12L12 16L11 16L11 15L10 15L10 16L9 16L9 17L8 17L8 18L7 18L7 17L6 17L6 16L7 16L7 15L9 15L9 14L11 14L11 13L10 13L10 12L8 12L8 13L5 13L5 14L2 14L2 13L4 13L4 12L7 12L7 11L8 11L8 10L9 10L9 11L11 11L11 8L10 8L10 5ZM16 6L16 7L17 7L17 6ZM9 9L9 10L10 10L10 9ZM13 10L13 11L14 11L14 10ZM22 10L22 12L23 12L23 10ZM25 11L25 12L26 12L26 11ZM27 11L27 12L28 12L28 11ZM13 13L13 15L15 15L15 16L16 16L16 15L15 15L15 14L14 14L14 13ZM5 14L5 16L6 16L6 15L7 15L7 14ZM19 15L19 17L20 17L20 15ZM10 16L10 18L9 18L9 19L10 19L10 18L11 18L11 19L12 19L12 20L13 20L13 18L14 18L14 20L16 20L16 19L17 19L17 20L19 20L19 18L18 18L18 19L17 19L17 18L16 18L16 19L15 19L15 17L14 17L14 16L12 16L12 18L11 18L11 16ZM0 18L0 19L1 19L1 18ZM6 18L6 19L7 19L7 18ZM26 18L26 20L27 20L27 18ZM0 20L0 21L1 21L1 20ZM14 21L14 22L15 22L15 21ZM16 21L16 22L17 22L17 21ZM18 21L18 24L17 24L17 23L16 23L16 24L15 24L15 23L14 23L14 24L15 24L15 25L18 25L18 24L19 24L19 21ZM21 21L21 24L24 24L24 21ZM22 22L22 23L23 23L23 22ZM27 23L27 24L26 24L26 25L25 25L25 27L24 27L24 28L25 28L25 27L26 27L26 25L27 25L27 24L28 24L28 23ZM11 26L11 28L12 28L12 26ZM27 26L27 27L28 27L28 26ZM8 27L8 29L9 29L9 27ZM0 0L0 7L7 7L7 0ZM1 1L1 6L6 6L6 1ZM2 2L2 5L5 5L5 2ZM22 0L22 7L29 7L29 0ZM23 1L23 6L28 6L28 1ZM24 2L24 5L27 5L27 2ZM0 22L0 29L7 29L7 22ZM1 23L1 28L6 28L6 23ZM2 24L2 27L5 27L5 24Z" fill="#000000"/></g></g></svg>
