<?xml version="1.0" encoding="UTF-8"?>
<svg xmlns="http://www.w3.org/2000/svg" version="1.1" width="100" height="100" viewBox="0 0 100 100"><rect x="0" y="0" width="100" height="100" fill="#ffffff"/><g transform="scale(3.448)"><g transform="translate(0,0)"><path fill-rule="evenodd" d="M8 0L8 4L9 4L9 5L8 5L8 7L9 7L9 6L10 6L10 9L11 9L11 8L12 8L12 9L13 9L13 11L12 11L12 12L11 12L11 13L10 13L10 14L9 14L9 13L8 13L8 14L6 14L6 13L7 13L7 12L6 12L6 11L7 11L7 10L8 10L8 12L10 12L10 11L11 11L11 10L9 10L9 9L7 9L7 8L4 8L4 9L2 9L2 8L0 8L0 9L1 9L1 11L0 11L0 15L1 15L1 16L2 16L2 17L0 17L0 18L2 18L2 19L3 19L3 21L4 21L4 20L5 20L5 21L7 21L7 20L5 20L5 18L6 18L6 19L7 19L7 18L6 18L6 17L8 17L8 19L11 19L11 17L10 17L10 16L9 16L9 17L8 17L8 16L4 16L4 15L1 15L1 11L2 11L2 13L3 13L3 14L4 14L4 13L5 13L5 14L6 14L6 15L10 15L10 14L11 14L11 16L12 16L12 17L13 17L13 18L15 18L15 19L14 19L14 20L13 20L13 19L12 19L12 20L11 20L11 21L12 21L12 22L10 22L10 21L8 21L8 22L10 22L10 23L11 23L11 24L9 24L9 23L8 23L8 25L11 25L11 24L12 24L12 25L13 25L13 26L15 26L15 27L14 27L14 28L13 28L13 27L12 27L12 28L11 28L11 26L10 26L10 29L12 29L12 28L13 28L13 29L15 29L15 28L16 28L16 26L17 26L17 29L18 29L18 28L19 28L19 29L21 29L21 27L20 27L20 28L19 28L19 26L22 26L22 25L23 25L23 26L24 26L24 25L25 25L25 26L26 26L26 27L27 27L27 29L28 29L28 28L29 28L29 25L28 25L28 24L27 24L27 25L28 25L28 26L26 26L26 25L25 25L25 20L26 20L26 19L27 19L27 20L29 20L29 17L26 17L26 14L27 14L27 13L28 13L28 15L27 15L27 16L28 16L28 15L29 15L29 12L27 12L27 13L26 13L26 14L25 14L25 13L22 13L22 12L23 12L23 10L24 10L24 12L26 12L26 11L25 11L25 9L26 9L26 10L27 10L27 9L28 9L28 11L29 11L29 8L25 8L25 9L24 9L24 8L23 8L23 9L22 9L22 11L20 11L20 12L19 12L19 13L21 13L21 14L22 14L22 16L21 16L21 17L22 17L22 18L20 18L20 20L19 20L19 19L18 19L18 18L19 18L19 17L20 17L20 16L19 16L19 17L18 17L18 14L17 14L17 13L16 13L16 12L18 12L18 10L19 10L19 9L21 9L21 8L18 8L18 7L19 7L19 6L20 6L20 7L21 7L21 6L20 6L20 5L19 5L19 4L17 4L17 5L19 5L19 6L18 6L18 7L17 7L17 6L16 6L16 7L15 7L15 5L16 5L16 4L15 4L15 5L14 5L14 3L13 3L13 2L15 2L15 1L16 1L16 0L13 0L13 1L11 1L11 2L12 2L12 5L13 5L13 6L12 6L12 7L11 7L11 3L10 3L10 2L9 2L9 0ZM18 0L18 1L19 1L19 2L16 2L16 3L19 3L19 2L20 2L20 4L21 4L21 1L19 1L19 0ZM13 6L13 7L12 7L12 8L13 8L13 9L14 9L14 11L13 11L13 12L12 12L12 13L11 13L11 14L12 14L12 13L13 13L13 14L14 14L14 13L13 13L13 12L14 12L14 11L15 11L15 10L16 10L16 11L17 11L17 10L18 10L18 9L17 9L17 7L16 7L16 8L15 8L15 9L14 9L14 6ZM4 9L4 10L5 10L5 9ZM6 9L6 10L7 10L7 9ZM16 9L16 10L17 10L17 9ZM2 10L2 11L3 11L3 10ZM4 11L4 12L5 12L5 13L6 13L6 12L5 12L5 11ZM15 13L15 14L16 14L16 13ZM12 15L12 16L13 16L13 15ZM14 15L14 17L16 17L16 18L18 18L18 17L17 17L17 16L15 16L15 15ZM24 15L24 17L25 17L25 15ZM22 16L22 17L23 17L23 16ZM3 17L3 18L4 18L4 17ZM9 17L9 18L10 18L10 17ZM24 18L24 20L25 20L25 18ZM27 18L27 19L28 19L28 18ZM16 19L16 20L15 20L15 21L13 21L13 20L12 20L12 21L13 21L13 22L15 22L15 21L16 21L16 20L17 20L17 19ZM21 19L21 20L23 20L23 19ZM0 20L0 21L2 21L2 20ZM18 20L18 23L19 23L19 22L20 22L20 21L19 21L19 20ZM21 21L21 24L24 24L24 21ZM26 21L26 22L28 22L28 23L29 23L29 22L28 22L28 21ZM22 22L22 23L23 23L23 22ZM12 23L12 24L13 24L13 23ZM14 23L14 25L15 25L15 24L16 24L16 25L17 25L17 23ZM18 24L18 25L19 25L19 24ZM8 27L8 29L9 29L9 27ZM22 27L22 28L24 28L24 29L26 29L26 28L24 28L24 27ZM0 0L0 7L7 7L7 0ZM1 1L1 6L6 6L6 1ZM2 2L2 5L5 5L5 2ZM22 0L22 7L29 7L29 0ZM23 1L23 6L28 6L28 1ZM24 2L24 5L27 5L27 2ZM0 22L0 29L7 29L7 22ZM1 23L1 28L6 28L6 23ZM2 24L2 27L5 27L5 24Z" fill="#000000"/></g></g></svg>
