<?xml version="1.0" encoding="UTF-8"?>
<svg xmlns="http://www.w3.org/2000/svg" version="1.1" width="100" height="100" viewBox="0 0 100 100"><rect x="0" y="0" width="100" height="100" fill="#ffffff"/><g transform="scale(4)"><g transform="translate(0,0)"><path fill-rule="evenodd" d="M9 0L9 1L8 1L8 2L9 2L9 3L8 3L8 4L9 4L9 5L8 5L8 7L9 7L9 8L6 8L6 9L9 9L9 10L6 10L6 11L8 11L8 12L4 12L4 10L5 10L5 8L0 8L0 9L4 9L4 10L1 10L1 11L2 11L2 12L0 12L0 17L1 17L1 14L4 14L4 15L5 15L5 16L2 16L2 17L7 17L7 16L6 16L6 15L7 15L7 14L8 14L8 15L9 15L9 14L10 14L10 17L11 17L11 18L12 18L12 19L13 19L13 18L14 18L14 20L13 20L13 21L15 21L15 22L14 22L14 24L12 24L12 23L13 23L13 22L12 22L12 21L11 21L11 19L10 19L10 18L9 18L9 16L8 16L8 19L9 19L9 20L8 20L8 25L9 25L9 24L10 24L10 25L15 25L15 24L17 24L17 25L18 25L18 23L15 23L15 22L16 22L16 21L17 21L17 22L22 22L22 23L23 23L23 22L22 22L22 21L23 21L23 20L21 20L21 15L22 15L22 14L20 14L20 16L17 16L17 14L18 14L18 15L19 15L19 14L18 14L18 13L19 13L19 10L20 10L20 8L19 8L19 10L18 10L18 8L17 8L17 6L16 6L16 5L15 5L15 3L17 3L17 2L16 2L16 1L15 1L15 3L14 3L14 5L15 5L15 6L14 6L14 7L15 7L15 8L12 8L12 9L16 9L16 10L15 10L15 11L14 11L14 12L13 12L13 11L12 11L12 12L11 12L11 13L13 13L13 14L12 14L12 17L11 17L11 14L10 14L10 11L11 11L11 9L9 9L9 8L11 8L11 6L10 6L10 5L12 5L12 7L13 7L13 4L12 4L12 3L13 3L13 0L11 0L11 1L12 1L12 2L11 2L11 4L9 4L9 3L10 3L10 0ZM9 6L9 7L10 7L10 6ZM15 6L15 7L16 7L16 6ZM21 8L21 9L22 9L22 11L25 11L25 10L23 10L23 9L24 9L24 8L23 8L23 9L22 9L22 8ZM9 10L9 11L10 11L10 10ZM17 10L17 11L15 11L15 12L16 12L16 13L15 13L15 14L13 14L13 16L14 16L14 15L15 15L15 14L16 14L16 13L17 13L17 12L18 12L18 10ZM3 12L3 13L4 13L4 14L5 14L5 13L4 13L4 12ZM20 12L20 13L23 13L23 15L24 15L24 17L23 17L23 16L22 16L22 17L23 17L23 19L24 19L24 21L25 21L25 14L24 14L24 13L25 13L25 12L24 12L24 13L23 13L23 12ZM6 13L6 14L7 14L7 13ZM8 13L8 14L9 14L9 13ZM14 17L14 18L15 18L15 20L16 20L16 17ZM17 17L17 20L20 20L20 17ZM18 18L18 19L19 19L19 18ZM9 20L9 22L11 22L11 23L10 23L10 24L11 24L11 23L12 23L12 22L11 22L11 21L10 21L10 20ZM24 22L24 24L22 24L22 25L25 25L25 22ZM19 24L19 25L20 25L20 24ZM0 0L0 7L7 7L7 0ZM1 1L1 6L6 6L6 1ZM2 2L2 5L5 5L5 2ZM18 0L18 7L25 7L25 0ZM19 1L19 6L24 6L24 1ZM20 2L20 5L23 5L23 2ZM0 18L0 25L7 25L7 18ZM1 19L1 24L6 24L6 19ZM2 20L2 23L5 23L5 20Z" fill="#000000"/></g></g></svg>
