<?xml version="1.0" encoding="UTF-8"?>
<svg xmlns="http://www.w3.org/2000/svg" version="1.1" width="100" height="100" viewBox="0 0 100 100"><rect x="0" y="0" width="100" height="100" fill="#ffffff"/><g transform="scale(3.448)"><g transform="translate(0,0)"><path fill-rule="evenodd" d="M8 0L8 1L10 1L10 0ZM18 0L18 1L17 1L17 2L15 2L15 1L14 1L14 2L11 2L11 4L10 4L10 3L9 3L9 2L8 2L8 5L9 5L9 6L8 6L8 7L9 7L9 8L8 8L8 9L7 9L7 8L6 8L6 9L5 9L5 10L4 10L4 8L0 8L0 9L3 9L3 11L5 11L5 12L0 12L0 13L1 13L1 14L0 14L0 15L2 15L2 16L0 16L0 17L1 17L1 18L0 18L0 19L1 19L1 18L2 18L2 16L3 16L3 18L4 18L4 17L5 17L5 19L4 19L4 20L5 20L5 19L8 19L8 18L9 18L9 17L12 17L12 18L10 18L10 19L9 19L9 20L8 20L8 22L9 22L9 23L10 23L10 24L11 24L11 23L14 23L14 22L15 22L15 21L14 21L14 20L13 20L13 18L14 18L14 17L12 17L12 16L14 16L14 15L15 15L15 16L16 16L16 15L17 15L17 14L19 14L19 15L18 15L18 17L19 17L19 15L20 15L20 13L16 13L16 15L15 15L15 13L13 13L13 14L12 14L12 12L14 12L14 11L15 11L15 10L16 10L16 12L17 12L17 11L18 11L18 10L20 10L20 11L19 11L19 12L21 12L21 11L22 11L22 12L25 12L25 14L24 14L24 17L23 17L23 18L24 18L24 19L22 19L22 18L21 18L21 17L22 17L22 16L21 16L21 17L20 17L20 19L21 19L21 20L19 20L19 18L18 18L18 19L16 19L16 18L17 18L17 17L15 17L15 19L16 19L16 20L17 20L17 21L16 21L16 22L17 22L17 23L18 23L18 24L17 24L17 25L15 25L15 24L16 24L16 23L15 23L15 24L14 24L14 26L13 26L13 24L12 24L12 25L8 25L8 29L11 29L11 28L12 28L12 29L13 29L13 28L12 28L12 26L13 26L13 27L14 27L14 29L15 29L15 28L17 28L17 27L14 27L14 26L17 26L17 25L18 25L18 24L19 24L19 23L20 23L20 26L18 26L18 27L20 27L20 29L21 29L21 27L22 27L22 25L24 25L24 26L23 26L23 27L24 27L24 28L23 28L23 29L24 29L24 28L25 28L25 27L27 27L27 29L28 29L28 27L29 27L29 25L28 25L28 27L27 27L27 26L25 26L25 25L27 25L27 24L28 24L28 22L26 22L26 21L27 21L27 18L28 18L28 17L27 17L27 18L26 18L26 17L25 17L25 16L26 16L26 15L25 15L25 14L27 14L27 16L29 16L29 12L28 12L28 10L29 10L29 8L28 8L28 9L27 9L27 8L24 8L24 9L22 9L22 8L21 8L21 5L20 5L20 4L21 4L21 0ZM19 1L19 2L20 2L20 1ZM14 2L14 4L13 4L13 3L12 3L12 5L10 5L10 6L9 6L9 7L10 7L10 8L9 8L9 9L8 9L8 10L7 10L7 9L6 9L6 10L5 10L5 11L6 11L6 12L5 12L5 13L3 13L3 14L2 14L2 15L4 15L4 16L5 16L5 17L6 17L6 18L7 18L7 17L8 17L8 16L9 16L9 15L8 15L8 14L9 14L9 13L8 13L8 14L7 14L7 13L6 13L6 12L7 12L7 11L8 11L8 10L9 10L9 12L10 12L10 13L11 13L11 11L14 11L14 10L13 10L13 9L16 9L16 5L17 5L17 7L18 7L18 9L17 9L17 10L18 10L18 9L19 9L19 8L20 8L20 9L21 9L21 8L20 8L20 6L19 6L19 7L18 7L18 5L19 5L19 4L20 4L20 3L19 3L19 4L16 4L16 3L15 3L15 2ZM17 2L17 3L18 3L18 2ZM15 4L15 5L16 5L16 4ZM12 5L12 7L11 7L11 6L10 6L10 7L11 7L11 8L12 8L12 7L13 7L13 6L14 6L14 7L15 7L15 6L14 6L14 5ZM9 9L9 10L10 10L10 9ZM26 9L26 10L25 10L25 12L27 12L27 14L28 14L28 12L27 12L27 11L26 11L26 10L27 10L27 9ZM0 10L0 11L2 11L2 10ZM6 10L6 11L7 11L7 10ZM22 10L22 11L24 11L24 10ZM5 13L5 14L4 14L4 15L5 15L5 16L6 16L6 17L7 17L7 16L6 16L6 15L7 15L7 14L6 14L6 13ZM21 13L21 15L23 15L23 13ZM10 14L10 16L12 16L12 14ZM13 14L13 15L14 15L14 14ZM24 17L24 18L25 18L25 17ZM2 19L2 20L1 20L1 21L3 21L3 19ZM10 19L10 20L12 20L12 19ZM24 19L24 20L25 20L25 21L26 21L26 20L25 20L25 19ZM6 20L6 21L7 21L7 20ZM28 20L28 21L29 21L29 20ZM11 21L11 22L10 22L10 23L11 23L11 22L12 22L12 21ZM18 21L18 23L19 23L19 21ZM21 21L21 24L24 24L24 21ZM22 22L22 23L23 23L23 22ZM25 22L25 23L26 23L26 24L27 24L27 23L26 23L26 22ZM9 26L9 27L10 27L10 28L11 28L11 26ZM20 26L20 27L21 27L21 26ZM24 26L24 27L25 27L25 26ZM18 28L18 29L19 29L19 28ZM0 0L0 7L7 7L7 0ZM1 1L1 6L6 6L6 1ZM2 2L2 5L5 5L5 2ZM22 0L22 7L29 7L29 0ZM23 1L23 6L28 6L28 1ZM24 2L24 5L27 5L27 2ZM0 22L0 29L7 29L7 22ZM1 23L1 28L6 28L6 23ZM2 24L2 27L5 27L5 24Z" fill="#000000"/></g></g></svg>
