<?xml version="1.0" encoding="UTF-8"?>
<svg xmlns="http://www.w3.org/2000/svg" version="1.1" width="100" height="100" viewBox="0 0 100 100"><rect x="0" y="0" width="100" height="100" fill="#ffffff"/><g transform="scale(4)"><g transform="translate(0,0)"><path fill-rule="evenodd" d="M8 0L8 4L9 4L9 3L10 3L10 5L8 5L8 7L9 7L9 9L7 9L7 8L4 8L4 9L2 9L2 8L0 8L0 11L1 11L1 12L2 12L2 10L3 10L3 11L7 11L7 10L9 10L9 12L11 12L11 13L13 13L13 12L12 12L12 11L13 11L13 10L15 10L15 11L14 11L14 12L15 12L15 11L16 11L16 12L17 12L17 13L15 13L15 15L14 15L14 16L16 16L16 17L14 17L14 20L15 20L15 18L16 18L16 21L17 21L17 22L16 22L16 23L15 23L15 21L13 21L13 22L14 22L14 24L15 24L15 25L16 25L16 23L18 23L18 24L17 24L17 25L18 25L18 24L19 24L19 21L21 21L21 18L22 18L22 21L23 21L23 20L24 20L24 21L25 21L25 20L24 20L24 19L23 19L23 18L25 18L25 16L24 16L24 15L23 15L23 14L24 14L24 13L25 13L25 11L22 11L22 13L20 13L20 12L18 12L18 9L17 9L17 8L16 8L16 7L17 7L17 6L16 6L16 7L15 7L15 5L16 5L16 4L17 4L17 3L16 3L16 2L15 2L15 1L16 1L16 0L11 0L11 1L12 1L12 2L15 2L15 3L14 3L14 4L13 4L13 3L12 3L12 4L11 4L11 2L9 2L9 0ZM15 3L15 4L14 4L14 5L15 5L15 4L16 4L16 3ZM10 5L10 6L9 6L9 7L10 7L10 9L9 9L9 10L10 10L10 11L11 11L11 10L13 10L13 9L16 9L16 8L15 8L15 7L14 7L14 6L13 6L13 9L12 9L12 8L11 8L11 7L12 7L12 5ZM10 6L10 7L11 7L11 6ZM19 8L19 9L20 9L20 10L23 10L23 9L25 9L25 8L21 8L21 9L20 9L20 8ZM4 9L4 10L5 10L5 9ZM6 9L6 10L7 10L7 9ZM10 9L10 10L11 10L11 9ZM16 10L16 11L17 11L17 10ZM3 12L3 13L2 13L2 16L0 16L0 17L2 17L2 16L3 16L3 17L4 17L4 16L6 16L6 17L8 17L8 18L9 18L9 17L8 17L8 16L10 16L10 17L11 17L11 19L8 19L8 21L9 21L9 23L8 23L8 25L13 25L13 23L12 23L12 21L11 21L11 22L10 22L10 21L9 21L9 20L13 20L13 19L12 19L12 18L13 18L13 16L12 16L12 14L10 14L10 13L7 13L7 12L6 12L6 13L5 13L5 12ZM23 12L23 13L22 13L22 14L23 14L23 13L24 13L24 12ZM0 13L0 14L1 14L1 13ZM4 13L4 14L3 14L3 16L4 16L4 15L6 15L6 16L7 16L7 15L6 15L6 14L7 14L7 13L6 13L6 14L5 14L5 13ZM18 13L18 15L19 15L19 16L20 16L20 14L19 14L19 13ZM8 14L8 15L10 15L10 16L11 16L11 17L12 17L12 16L11 16L11 15L10 15L10 14ZM16 14L16 16L17 16L17 14ZM21 15L21 16L22 16L22 15ZM23 16L23 17L22 17L22 18L23 18L23 17L24 17L24 16ZM17 17L17 20L20 20L20 17ZM18 18L18 19L19 19L19 18ZM23 22L23 23L22 23L22 24L20 24L20 25L25 25L25 24L24 24L24 22ZM9 23L9 24L10 24L10 23ZM11 23L11 24L12 24L12 23ZM0 0L0 7L7 7L7 0ZM1 1L1 6L6 6L6 1ZM2 2L2 5L5 5L5 2ZM18 0L18 7L25 7L25 0ZM19 1L19 6L24 6L24 1ZM20 2L20 5L23 5L23 2ZM0 18L0 25L7 25L7 18ZM1 19L1 24L6 24L6 19ZM2 20L2 23L5 23L5 20Z" fill="#000000"/></g></g></svg>
