<?xml version="1.0" encoding="UTF-8"?>
<svg xmlns="http://www.w3.org/2000/svg" version="1.1" width="100" height="100" viewBox="0 0 100 100"><rect x="0" y="0" width="100" height="100" fill="#ffffff"/><g transform="scale(3.448)"><g transform="translate(0,0)"><path fill-rule="evenodd" d="M8 0L8 4L10 4L10 3L11 3L11 4L12 4L12 2L11 2L11 0ZM12 0L12 1L13 1L13 2L15 2L15 1L16 1L16 0ZM18 0L18 1L19 1L19 2L16 2L16 3L19 3L19 2L20 2L20 4L21 4L21 1L19 1L19 0ZM9 2L9 3L10 3L10 2ZM13 3L13 5L11 5L11 6L10 6L10 7L9 7L9 5L8 5L8 7L9 7L9 8L10 8L10 7L11 7L11 6L12 6L12 8L11 8L11 9L9 9L9 10L11 10L11 11L10 11L10 13L11 13L11 12L12 12L12 13L13 13L13 14L15 14L15 15L14 15L14 16L13 16L13 15L12 15L12 16L11 16L11 15L10 15L10 14L6 14L6 13L7 13L7 12L5 12L5 11L8 11L8 10L5 10L5 9L7 9L7 8L4 8L4 9L2 9L2 8L0 8L0 9L1 9L1 11L3 11L3 12L0 12L0 13L3 13L3 14L4 14L4 16L0 16L0 18L1 18L1 17L3 17L3 18L2 18L2 20L0 20L0 21L2 21L2 20L4 20L4 21L5 21L5 19L7 19L7 20L6 20L6 21L8 21L8 22L9 22L9 21L10 21L10 22L11 22L11 20L12 20L12 21L13 21L13 22L15 22L15 23L14 23L14 24L13 24L13 23L12 23L12 24L11 24L11 23L10 23L10 24L9 24L9 23L8 23L8 25L10 25L10 26L9 26L9 27L8 27L8 29L11 29L11 28L12 28L12 29L14 29L14 27L15 27L15 28L16 28L16 26L17 26L17 29L18 29L18 28L19 28L19 29L21 29L21 27L20 27L20 28L19 28L19 26L22 26L22 25L23 25L23 26L24 26L24 25L25 25L25 26L26 26L26 27L27 27L27 29L28 29L28 28L29 28L29 25L28 25L28 23L29 23L29 22L28 22L28 21L26 21L26 22L28 22L28 23L27 23L27 25L28 25L28 26L26 26L26 25L25 25L25 20L26 20L26 19L27 19L27 20L29 20L29 17L26 17L26 14L27 14L27 13L28 13L28 15L27 15L27 16L28 16L28 15L29 15L29 12L27 12L27 13L26 13L26 14L25 14L25 13L22 13L22 12L23 12L23 10L24 10L24 12L26 12L26 11L25 11L25 9L26 9L26 10L27 10L27 9L28 9L28 11L29 11L29 8L25 8L25 9L24 9L24 8L23 8L23 9L22 9L22 11L20 11L20 12L19 12L19 13L21 13L21 14L22 14L22 16L21 16L21 17L22 17L22 18L20 18L20 20L19 20L19 19L18 19L18 18L19 18L19 17L20 17L20 16L19 16L19 17L18 17L18 14L17 14L17 13L16 13L16 12L18 12L18 10L19 10L19 9L21 9L21 8L18 8L18 7L19 7L19 6L20 6L20 7L21 7L21 6L20 6L20 5L19 5L19 4L17 4L17 5L19 5L19 6L18 6L18 7L17 7L17 6L16 6L16 7L15 7L15 6L14 6L14 3ZM15 4L15 5L16 5L16 4ZM13 6L13 8L12 8L12 9L11 9L11 10L12 10L12 9L13 9L13 10L14 10L14 9L13 9L13 8L15 8L15 10L16 10L16 11L17 11L17 10L18 10L18 9L17 9L17 7L16 7L16 8L15 8L15 7L14 7L14 6ZM16 9L16 10L17 10L17 9ZM3 10L3 11L4 11L4 10ZM12 11L12 12L13 12L13 11ZM14 11L14 13L15 13L15 14L16 14L16 13L15 13L15 11ZM3 12L3 13L5 13L5 12ZM8 12L8 13L9 13L9 12ZM6 15L6 16L7 16L7 15ZM9 15L9 16L10 16L10 18L9 18L9 17L8 17L8 18L7 18L7 17L5 17L5 16L4 16L4 18L3 18L3 19L5 19L5 18L7 18L7 19L8 19L8 18L9 18L9 19L10 19L10 20L11 20L11 19L10 19L10 18L12 18L12 17L13 17L13 18L15 18L15 17L16 17L16 18L18 18L18 17L17 17L17 16L15 16L15 17L13 17L13 16L12 16L12 17L11 17L11 16L10 16L10 15ZM24 15L24 17L25 17L25 15ZM22 16L22 17L23 17L23 16ZM24 18L24 20L25 20L25 18ZM27 18L27 19L28 19L28 18ZM12 19L12 20L13 20L13 19ZM14 19L14 21L16 21L16 20L17 20L17 19L16 19L16 20L15 20L15 19ZM21 19L21 20L23 20L23 19ZM18 20L18 23L19 23L19 22L20 22L20 21L19 21L19 20ZM21 21L21 24L24 24L24 21ZM22 22L22 23L23 23L23 22ZM15 23L15 24L16 24L16 25L17 25L17 23ZM12 24L12 25L11 25L11 26L10 26L10 28L11 28L11 26L12 26L12 25L13 25L13 26L15 26L15 25L13 25L13 24ZM18 24L18 25L19 25L19 24ZM12 27L12 28L13 28L13 27ZM22 27L22 28L24 28L24 29L26 29L26 28L24 28L24 27ZM0 0L0 7L7 7L7 0ZM1 1L1 6L6 6L6 1ZM2 2L2 5L5 5L5 2ZM22 0L22 7L29 7L29 0ZM23 1L23 6L28 6L28 1ZM24 2L24 5L27 5L27 2ZM0 22L0 29L7 29L7 22ZM1 23L1 28L6 28L6 23ZM2 24L2 27L5 27L5 24Z" fill="#000000"/></g></g></svg>
