<?xml version="1.0" encoding="UTF-8"?>
<svg xmlns="http://www.w3.org/2000/svg" version="1.1" width="100" height="100" viewBox="0 0 100 100"><rect x="0" y="0" width="100" height="100" fill="#ffffff"/><g transform="scale(3.448)"><g transform="translate(0,0)"><path fill-rule="evenodd" d="M8 0L8 1L9 1L9 2L8 2L8 5L9 5L9 4L11 4L11 5L10 5L10 10L9 10L9 8L8 8L8 10L5 10L5 11L7 11L7 12L6 12L6 13L5 13L5 14L6 14L6 15L7 15L7 14L8 14L8 16L5 16L5 17L8 17L8 16L10 16L10 17L11 17L11 16L12 16L12 17L13 17L13 16L12 16L12 14L13 14L13 15L14 15L14 18L13 18L13 21L15 21L15 19L16 19L16 20L17 20L17 21L16 21L16 22L17 22L17 23L18 23L18 24L17 24L17 25L15 25L15 26L14 26L14 25L13 25L13 26L12 26L12 24L16 24L16 23L15 23L15 22L14 22L14 23L11 23L11 22L10 22L10 20L12 20L12 19L10 19L10 18L8 18L8 19L7 19L7 18L6 18L6 19L5 19L5 18L3 18L3 17L2 17L2 16L4 16L4 14L0 14L0 16L1 16L1 18L0 18L0 19L1 19L1 18L2 18L2 19L3 19L3 20L4 20L4 19L5 19L5 20L6 20L6 21L7 21L7 20L8 20L8 22L9 22L9 25L8 25L8 29L9 29L9 27L10 27L10 28L11 28L11 29L12 29L12 28L14 28L14 27L15 27L15 28L17 28L17 27L15 27L15 26L17 26L17 25L18 25L18 24L19 24L19 23L20 23L20 26L18 26L18 27L20 27L20 29L21 29L21 27L22 27L22 25L24 25L24 26L23 26L23 27L24 27L24 28L23 28L23 29L24 29L24 28L25 28L25 27L27 27L27 29L28 29L28 27L29 27L29 25L28 25L28 27L27 27L27 26L25 26L25 25L27 25L27 24L26 24L26 23L28 23L28 22L26 22L26 21L27 21L27 18L28 18L28 17L27 17L27 18L26 18L26 17L25 17L25 16L26 16L26 15L25 15L25 14L27 14L27 16L29 16L29 12L28 12L28 10L29 10L29 8L28 8L28 9L27 9L27 8L24 8L24 9L22 9L22 8L21 8L21 5L20 5L20 4L21 4L21 0L18 0L18 1L17 1L17 2L15 2L15 1L14 1L14 2L13 2L13 0L12 0L12 1L11 1L11 0L10 0L10 1L9 1L9 0ZM19 1L19 2L20 2L20 1ZM11 2L11 4L12 4L12 3L13 3L13 2ZM14 2L14 6L13 6L13 5L12 5L12 6L11 6L11 8L12 8L12 6L13 6L13 8L14 8L14 11L11 11L11 13L9 13L9 15L11 15L11 13L12 13L12 12L13 12L13 14L14 14L14 15L16 15L16 16L15 16L15 17L17 17L17 18L16 18L16 19L18 19L18 18L19 18L19 20L21 20L21 19L20 19L20 17L21 17L21 18L22 18L22 19L24 19L24 20L25 20L25 21L26 21L26 20L25 20L25 19L24 19L24 18L25 18L25 17L24 17L24 14L25 14L25 12L27 12L27 14L28 14L28 12L27 12L27 11L26 11L26 10L27 10L27 9L26 9L26 10L25 10L25 12L22 12L22 11L24 11L24 10L22 10L22 11L21 11L21 12L19 12L19 11L20 11L20 10L18 10L18 9L19 9L19 8L20 8L20 9L21 9L21 8L20 8L20 6L19 6L19 7L18 7L18 5L19 5L19 4L20 4L20 3L19 3L19 4L16 4L16 3L15 3L15 2ZM17 2L17 3L18 3L18 2ZM15 4L15 5L16 5L16 9L15 9L15 10L16 10L16 12L17 12L17 11L18 11L18 10L17 10L17 9L18 9L18 7L17 7L17 5L16 5L16 4ZM8 6L8 7L9 7L9 6ZM14 6L14 7L15 7L15 6ZM0 8L0 10L1 10L1 12L0 12L0 13L1 13L1 12L2 12L2 11L3 11L3 12L4 12L4 8ZM6 8L6 9L7 9L7 8ZM11 9L11 10L12 10L12 9ZM8 10L8 12L7 12L7 13L6 13L6 14L7 14L7 13L8 13L8 12L9 12L9 10ZM14 12L14 14L15 14L15 12ZM16 13L16 15L17 15L17 14L19 14L19 15L18 15L18 17L19 17L19 15L20 15L20 13ZM21 13L21 15L23 15L23 13ZM21 16L21 17L22 17L22 16ZM23 17L23 18L24 18L24 17ZM6 19L6 20L7 20L7 19ZM8 19L8 20L9 20L9 19ZM1 20L1 21L2 21L2 20ZM28 20L28 21L29 21L29 20ZM18 21L18 23L19 23L19 21ZM21 21L21 24L24 24L24 21ZM22 22L22 23L23 23L23 22ZM25 22L25 23L26 23L26 22ZM10 23L10 24L11 24L11 23ZM9 25L9 26L10 26L10 27L11 27L11 28L12 28L12 26L11 26L11 25ZM13 26L13 27L14 27L14 26ZM20 26L20 27L21 27L21 26ZM24 26L24 27L25 27L25 26ZM18 28L18 29L19 29L19 28ZM0 0L0 7L7 7L7 0ZM1 1L1 6L6 6L6 1ZM2 2L2 5L5 5L5 2ZM22 0L22 7L29 7L29 0ZM23 1L23 6L28 6L28 1ZM24 2L24 5L27 5L27 2ZM0 22L0 29L7 29L7 22ZM1 23L1 28L6 28L6 23ZM2 24L2 27L5 27L5 24Z" fill="#000000"/></g></g></svg>
